HIERARCHY
ROOT hip
{
	OFFSET 0.000000 0.000000 0.000000 
	CHANNELS 6 Xposition Yposition Zposition Xrotation Zrotation Yrotation
	JOINT abdomen
	{
		OFFSET 0.000000 3.402643 0.000000 
		CHANNELS 3 Xrotation Zrotation Yrotation
		JOINT chest
		{
			OFFSET 0.000000 8.438565 -0.680529 
			CHANNELS 3 Xrotation Zrotation Yrotation
			JOINT neck
			{
				OFFSET 0.000000 10.207942 -0.272212 
				CHANNELS 3 Xrotation Zrotation Yrotation
				JOINT head
				{
					OFFSET 0.000000 3.130431 0.000000 
					CHANNELS 3 Xrotation Zrotation Yrotation
					End Site
					{
						OFFSET 0.000000 3.130435 0.000000 
					}
				}
			}
			JOINT lCollar
			{
				OFFSET 3.470700 6.669187 -0.816635 
				CHANNELS 3 Yrotation Zrotation Xrotation
				JOINT lShldr
				{
					OFFSET 3.198488 0.000000 0.000000 
					CHANNELS 3 Zrotation Yrotation Xrotation
					JOINT lForeArm
					{
						OFFSET 10.139888 0.000000 0.000000 
						CHANNELS 3 Yrotation Zrotation Xrotation
						JOINT lHand
						{
							OFFSET 8.370511 0.000000 0.000000 
							CHANNELS 3 Zrotation Yrotation Xrotation
							End Site
							{
								OFFSET 4.083176 0.000000 0.000000 
							}
						}
					}
				}
			}
			JOINT rCollar
			{
				OFFSET -3.470700 6.669187 -0.816635 
				CHANNELS 3 Yrotation Zrotation Xrotation
				JOINT rShldr
				{
					OFFSET -3.198488 0.000000 0.000000 
					CHANNELS 3 Zrotation Yrotation Xrotation
					JOINT rForeArm
					{
						OFFSET -10.139888 0.000000 0.000000 
						CHANNELS 3 Yrotation Zrotation Xrotation
						JOINT rHand
						{
							OFFSET -8.370511 0.000000 0.000000 
							CHANNELS 3 Zrotation Yrotation Xrotation
							End Site
							{
								OFFSET -4.083176 0.000000 0.000000 
							}
						}
					}
				}
			}
		}
	}
	JOINT lThigh
	{
		OFFSET 5.308129 -1.633274 1.361059 
		CHANNELS 3 Xrotation Zrotation Yrotation
		JOINT lShin
		{
			OFFSET -2.041588 -20.007561 0.000000 
			CHANNELS 3 Xrotation Zrotation Yrotation
			JOINT lFoot
			{
				OFFSET 0.000000 -19.190928 -1.224953 
				CHANNELS 3 Xrotation Yrotation Zrotation
				End Site
				{
					OFFSET 0.000000 -2.449906 4.627600 
				}
			}
		}
	}
	JOINT rThigh
	{
		OFFSET -5.308129 -1.633274 1.361059 
		CHANNELS 3 Xrotation Zrotation Yrotation
		JOINT rShin
		{
			OFFSET 2.041588 -20.007561 0.000000 
			CHANNELS 3 Xrotation Zrotation Yrotation
			JOINT rFoot
			{
				OFFSET 0.000000 -19.190928 -1.224953 
				CHANNELS 3 Xrotation Yrotation Zrotation
				End Site
				{
					OFFSET 0.000000 -2.449906 4.627600 
				}
			}
		}
	}
}
MOTION
Frames: 17
Frame Time: 0.033333
-3.264515 34.392807 -3.282640 -0.488281 -0.019531 -86.699226 30.660566 -9.698592 -4.665598 -43.291016 6.816406 3.847657 -8.603516 0.000000 0.000000 26.152346 7.236328 -2.049551 2.000000 -2.000000 0.000000 9.550780 -8.222655 -2.080078 4.027314 -1.792967 0.051089 1.756760 -3.283567 0.058713 -2.000000 2.000000 0.000000 8.935546 6.376953 -90.927734 13.864811 1.776936 -0.008844 -1.786088 3.264010 0.057537 9.344444 12.001357 18.853853 -0.999331 -4.143406 -0.065949 -3.554400 0.042224 0.017525 14.015289 -13.471549 -15.320833 -3.221082 4.145569 -0.108435 5.449055 0.033219 0.031343 
-3.241614 34.394394 -3.270377 -0.566406 -0.126953 -87.392601 30.660566 -9.698592 -4.665598 -43.183594 6.835938 3.593750 -8.603516 0.000000 0.000000 26.201174 7.050782 -2.000755 2.000000 -2.000000 0.000000 9.335938 -8.007812 -4.033203 4.046846 -1.792967 0.051089 1.756760 -3.283567 0.058713 -2.000000 2.000000 0.000000 8.535156 7.304688 -94.061264 12.682679 1.775781 0.010647 -1.786088 3.264010 0.057537 9.586362 11.823751 19.353041 -0.872304 -4.141921 -0.075401 -3.661961 0.034306 0.003704 13.934678 -13.681965 -14.718757 -3.316676 4.145808 -0.096165 5.556625 0.003072 0.031765 
-3.210410 34.397690 -3.252851 -0.673828 -0.283203 -88.164063 30.660566 -9.698592 -4.665598 -43.076172 6.884765 3.291016 -8.603516 0.000000 0.000000 26.318361 6.777344 -1.942208 2.000000 -2.000000 0.000000 8.779297 -7.890625 -6.261106 4.056611 -1.792967 0.051089 1.756760 -3.283567 0.058713 -2.000000 2.000000 0.000000 8.242188 8.027344 -96.132813 11.403382 1.775781 0.010647 -1.786088 3.264010 0.057537 9.881253 11.630838 20.039349 -0.735328 -4.128597 -0.085865 -3.740226 0.014004 -0.015312 13.862048 -13.912478 -14.033190 -3.388032 4.137394 -0.120382 5.575896 0.056256 0.008006 
-3.174416 34.402454 -3.230024 -0.751953 -0.410156 -88.935547 30.660566 -9.698592 -4.665598 -43.017578 6.962891 3.056641 -8.603516 0.000000 0.000000 26.494141 6.542968 -1.914063 2.000000 -2.000000 0.000000 8.017769 -7.988467 -8.497619 4.076143 -1.792967 0.051089 1.756760 -3.283567 0.058713 -2.000000 2.000000 0.000000 7.773438 8.291017 -96.815002 9.655337 1.775781 0.010647 -1.786088 3.264010 0.057537 10.152163 11.443186 20.804678 -0.589869 -4.151694 -0.096170 -3.740193 0.019373 -0.002498 13.761803 -14.125093 -13.341704 -3.485444 4.158196 -0.128636 5.605443 0.008814 0.023367 
-3.138314 34.408806 -3.201775 -0.771484 -0.458984 -89.619141 30.660566 -9.698592 -4.665598 -43.085938 7.050781 2.882059 -8.603516 0.000000 0.000000 26.621096 6.523438 -1.981313 2.000000 -2.000000 0.000000 7.402344 -8.300781 -10.655704 4.076143 -1.792967 0.051089 1.756760 -3.283567 0.058713 -2.000000 2.000000 0.000000 6.630859 7.939454 -96.580688 6.979556 1.775781 0.010647 -1.786088 3.264010 0.057537 10.328462 11.316845 21.555311 -0.551823 -4.147254 -0.108931 -3.710427 0.064538 0.005741 13.644619 -14.281009 -12.766723 -3.620757 4.156755 -0.168037 5.624575 0.068312 0.011889 
-3.106596 34.416862 -3.168396 -0.722656 -0.380859 -90.195313 30.660566 -9.698592 -4.665598 -43.251953 7.099610 2.753906 -8.603516 0.000000 0.000000 26.601564 6.728516 -2.127762 2.000000 -2.000000 0.000000 7.294922 -8.769531 -12.765159 3.998018 -1.792967 0.051089 1.756760 -3.283567 0.058713 -2.000000 2.000000 0.000000 4.619141 7.041016 -96.063255 3.385562 1.775203 0.020393 -1.786088 3.264010 0.057537 10.438190 11.200480 22.274513 -0.620132 -4.137219 -0.084572 -3.739979 0.044398 0.007937 13.452391 -14.352588 -12.289299 -3.823452 4.133365 -0.162560 5.722540 0.030964 0.020258 
-3.081985 34.427368 -3.131218 -0.644531 -0.175781 -90.703125 30.660566 -9.698592 -4.665598 -43.476563 7.099609 2.608630 -8.603516 0.000000 0.000000 26.289063 7.089843 -2.343750 2.000000 -2.000000 0.000000 7.939454 -9.218750 -14.845314 3.890596 -1.792967 0.051089 1.756760 -3.283567 0.058713 -2.000000 2.000000 0.000000 2.060547 5.869140 -95.664070 -0.179135 1.774625 0.030138 -1.786088 3.264010 0.057537 10.425519 11.150743 22.921080 -0.756576 -4.154550 -0.083777 -3.808554 0.016175 0.006756 13.182214 -14.393869 -11.910554 -4.060619 4.136771 -0.180144 5.898214 0.041576 0.033856 
-3.064167 34.440559 -3.092294 -0.537109 0.087891 -91.093735 30.660566 -9.698592 -4.665598 -43.671875 7.070312 2.344952 -8.603516 0.000000 0.000000 25.781252 7.519532 -2.498722 2.000000 -2.000000 0.000000 9.404296 -9.511718 -16.943357 3.822218 -1.783218 0.050510 1.756760 -3.283567 0.058713 -2.000000 2.000000 0.000000 -0.175781 4.804688 -95.410156 -2.229916 1.774626 0.030138 -1.786088 3.264010 0.057537 10.321178 11.083931 23.490608 -0.912494 -4.143296 -0.072467 -3.847647 0.007764 0.003246 12.863226 -14.369084 -11.558156 -4.275465 4.127107 -0.215103 5.995913 0.040161 0.023115 
-3.050133 34.455463 -3.053358 -0.458984 0.390625 -91.406250 30.660566 -9.698592 -4.665598 -43.828125 7.001954 1.972657 -8.603516 0.000000 0.000000 25.146486 7.851562 -2.635385 2.000000 -2.000000 0.000000 11.562500 -9.550781 -19.044590 3.978487 -1.792967 0.051089 1.756760 -3.283567 0.058713 -2.000000 2.000000 0.000000 -1.318359 4.121094 -95.302734 -1.585385 1.774625 0.030138 -1.786088 3.264010 0.057537 10.143148 11.014366 23.938280 -1.057829 -4.129202 -0.071753 -3.837856 0.015308 0.006398 12.536927 -14.344680 -11.282829 -4.450922 4.127005 -0.218372 6.015543 0.029560 0.009470 
-3.035942 34.469872 -3.015228 -0.380859 0.703125 -91.708984 30.660566 -9.698592 -4.665598 -43.994144 6.914063 1.542969 -8.603516 0.000000 0.000000 24.580080 8.105469 -2.801358 2.000000 -2.000000 0.000000 14.150391 -9.394158 -21.172613 4.417940 -1.792967 0.051089 1.756760 -3.283567 0.058713 -2.000000 2.000000 0.000000 -1.162109 3.808594 -95.263023 1.617984 1.775203 0.020393 -1.786088 3.264010 0.057537 9.928410 10.935854 24.313284 -1.117715 -4.143255 -0.047497 -3.759713 0.018728 0.007813 12.199782 -14.349113 -11.064421 -4.608690 4.128505 -0.220291 6.064371 0.025975 0.018548 
-3.017817 34.480740 -2.977623 -0.361328 0.996094 -92.050781 30.660566 -9.698592 -4.665598 -44.208984 6.845703 1.143742 -8.603516 0.000000 0.000000 24.238281 8.320312 -3.084525 2.000000 -2.000000 0.000000 16.591797 -9.218750 -23.291016 4.857393 -1.792967 0.051089 1.756760 -3.283567 0.058713 -2.000000 2.000000 0.000000 -0.175781 3.750000 -95.312500 6.012759 1.775781 0.010647 -1.786088 3.264010 0.057537 9.702998 10.886667 24.673082 -1.127025 -4.151137 -0.056316 -3.652185 0.031810 0.013235 11.814690 -14.374265 -10.774843 -4.765243 4.128733 -0.222137 6.122949 0.025936 0.028756 
-2.991693 34.485504 -2.939298 -0.332031 1.289064 -92.509544 30.660566 -9.698592 -4.665598 -44.423832 6.777344 0.908204 -8.603516 0.000000 0.000000 24.150389 8.505859 -3.564453 2.000000 -2.000000 0.000000 18.164063 -9.218750 -25.411722 4.525362 -1.792967 0.051089 1.756760 -3.283567 0.058713 -2.000000 2.000000 0.000000 1.025391 3.710938 -95.263039 10.085269 1.776359 0.000902 -1.786088 3.264010 0.057537 9.503209 10.786865 25.165060 -1.079798 -4.143444 -0.060149 -3.603314 0.031772 0.023774 11.400955 -14.477459 -10.399339 -4.885599 4.123263 -0.231219 6.191287 0.029457 0.029857 
-2.952745 34.482937 -2.897907 -0.410156 1.542971 -93.154030 30.660566 -9.698592 -4.665598 -44.638672 6.738281 0.909349 -8.603516 0.000000 0.000000 24.316408 8.681641 -4.119620 2.000000 -2.000000 0.000000 18.125002 -9.619141 -27.511396 2.601048 -1.794118 0.031598 1.756760 -3.283567 0.058713 -2.000000 2.000000 0.000000 2.167969 3.593750 -94.833374 13.004947 1.775781 0.010647 -1.786088 3.264010 0.057537 9.373972 10.673742 25.844648 -1.019236 -4.128525 -0.064900 -3.574178 0.022996 -0.011590 10.936519 -14.697078 -9.779144 -4.973524 4.123479 -0.257292 6.240138 0.028932 0.019440 
-2.896649 34.473778 -2.850934 -0.546875 1.728516 -93.935547 30.660566 -9.698592 -4.665598 -44.775394 6.708985 1.123047 -8.603516 0.000000 0.000000 24.550781 8.789062 -4.646945 2.000000 -2.000000 0.000000 16.250000 -10.390626 -29.640432 -0.973173 -1.794122 0.031598 1.756760 -3.283567 0.058713 -2.000000 2.000000 0.000000 3.417969 3.398438 -93.720123 14.909731 1.776936 -0.008844 -1.786088 3.264010 0.057537 9.312473 10.437376 26.686842 -0.903768 -4.144425 -0.043874 -3.574076 0.029797 0.012373 10.465708 -14.947826 -8.974239 -5.024248 4.125283 -0.231726 6.230278 0.033118 0.051475 
-2.822086 34.460831 -2.798160 -0.771484 1.806641 -94.755859 30.660566 -9.698592 -4.665598 -44.755859 6.679688 1.435547 -8.603516 0.000000 0.000000 24.746096 8.789063 -4.959445 2.000000 -2.000000 0.000000 13.085938 -11.191406 -31.748045 -5.055692 -1.795278 0.012107 1.756760 -3.283567 0.058713 -2.000000 2.000000 0.000000 5.107422 3.242188 -92.001953 16.169498 1.776936 -0.008844 -1.786088 3.264010 0.057537 9.294970 10.126839 27.666798 -0.767068 -4.142712 -0.083342 -3.613124 0.031436 0.013067 9.976118 -15.268005 -8.047700 -5.011990 4.124813 -0.230966 6.220709 -0.012485 0.057428 
-2.731463 34.447887 -2.743982 -0.986328 1.806641 -95.537109 30.660566 -9.698592 -4.665598 -44.580078 6.699219 1.680827 -8.603516 0.000000 0.000000 24.794922 8.652344 -4.959469 2.000000 -2.000000 0.000000 9.726563 -11.591797 -33.857418 -7.721463 -1.794700 0.021853 1.756760 -3.283567 0.058713 -2.000000 2.000000 0.000000 7.255858 3.320312 -90.371094 16.930969 1.776359 0.000902 -1.786088 3.264010 0.057537 9.280354 9.772102 28.561041 -0.532646 -4.129603 -0.091256 -3.662070 0.019397 -0.002501 9.614355 -15.610030 -7.180584 -5.023470 4.124970 -0.251242 6.269511 0.005736 0.032520 
-2.628749 34.439095 -2.696802 -1.191406 1.748047 -96.220406 30.660566 -9.698592 -4.665598 -44.248051 6.748048 1.708985 -8.603516 0.000000 0.000000 24.628910 8.378906 -4.676312 2.000000 -2.000000 0.000000 7.070312 -11.298827 -35.976555 -7.721725 -1.785529 0.011529 1.756760 -3.283567 0.058713 -2.000000 2.000000 0.000000 9.609375 3.710938 -89.794289 16.950502 1.776359 0.000902 -1.786088 3.264010 0.057537 9.216183 9.471793 29.253359 -0.191829 -4.129282 -0.097039 -3.740168 0.024537 -0.000344 9.301516 -15.862549 -6.500270 -5.046360 4.127866 -0.252878 6.367173 0.002116 0.031357 
